<svg width="100" height="100" viewBox="0 0 100 100" fill="none" xmlns="http://www.w3.org/2000/svg">
<circle cx="50" cy="50" r="48" fill="white" stroke="#555555" stroke-width="4"/>
<path d="M67.9722 43.7375C67.9722 53.4025 60.1372 61.2375 50.4722 61.2375C40.8073 61.2375 32.9722 53.4025 32.9722 43.7375C32.9722 34.0726 40.8073 26.2375 50.4722 26.2375C60.1372 26.2375 67.9722 34.0726 67.9722 43.7375Z" fill="#555555"/>
<path d="M62.9722 80.7375C62.9722 77.1262 62.6489 73.5502 62.0207 70.2137C61.3925 66.8773 60.4718 63.8457 59.3111 61.2921C58.1503 58.7385 56.7723 56.7129 55.2558 55.3309C53.7392 53.9488 52.1138 53.2375 50.4722 53.2375C48.8307 53.2375 47.2053 53.9489 45.6887 55.3309C44.1721 56.7129 42.7941 58.7385 41.6334 61.2921C40.4727 63.8457 39.5519 66.8773 38.9237 70.2137C38.2956 73.5502 37.9722 77.1262 37.9722 80.7375L62.9722 80.7375Z" fill="#555555"/>
<path d="M49.3645 36.2901C55.4397 46.8125 58.0381 56.6858 55.1684 58.3427C52.2986 59.9995 45.0474 52.8125 38.9722 42.2901C32.8971 31.7677 30.2986 21.8944 33.1684 20.2375C36.0381 18.5807 43.2894 25.7677 49.3645 36.2901Z" fill="#555555"/>
<path d="M61.3645 42.2901C55.2894 52.8125 48.0381 59.9995 45.1684 58.3427C42.2986 56.6858 44.8971 46.8125 50.9722 36.2901C57.0474 25.7677 64.2986 18.5807 67.1684 20.2375C70.0381 21.8944 67.4397 31.7677 61.3645 42.2901Z" fill="#555555"/>
</svg>
