<svg width="100" height="102" viewBox="0 0 100 102" fill="none" xmlns="http://www.w3.org/2000/svg">
<circle cx="50" cy="50" r="48" fill="#555555" stroke="white" stroke-width="4"/>
<path d="M76 76C76 72.5856 75.3275 69.2047 74.0209 66.0502C72.7142 62.8958 70.7991 60.0295 68.3848 57.6152C65.9705 55.2009 63.1042 53.2858 59.9498 51.9791C56.7953 50.6725 53.4144 50 50 50C46.5856 50 43.2047 50.6725 40.0502 51.9791C36.8958 53.2858 34.0295 55.2009 31.6152 57.6152C29.2009 60.0295 27.2858 62.8958 25.9791 66.0502C24.6725 69.2047 24 72.5856 24 76L50 76H76Z" fill="white"/>
<circle cx="50" cy="35" r="15" fill="white"/>
</svg>
