<svg width="91" height="93" viewBox="0 0 91 93" fill="none" xmlns="http://www.w3.org/2000/svg">
<circle cx="45.5" cy="45.5" r="43.5" fill="white" stroke="#555555" stroke-width="4"/>
<path d="M69.16 69.16C69.16 66.0529 68.548 62.9763 67.359 60.1057C66.1699 57.2351 64.4271 54.6269 62.2301 52.4299C60.0331 50.2328 57.4248 48.49 54.5543 47.301C51.6837 46.112 48.607 45.5 45.5 45.5C42.3929 45.5 39.3162 46.112 36.4457 47.301C33.5751 48.49 30.9669 50.2328 28.7698 52.4299C26.5728 54.6269 24.83 57.2351 23.641 60.1057C22.4519 62.9763 21.84 66.0529 21.84 69.16L45.5 69.16H69.16Z" fill="#555555"/>
<circle cx="45.5" cy="31.85" r="13.65" fill="#555555"/>
</svg>
