<svg width="100" height="100" viewBox="0 0 100 100" fill="none" xmlns="http://www.w3.org/2000/svg">
<circle cx="50" cy="50" r="48" fill="white" stroke="#555555" stroke-width="4"/>
<path d="M53.2992 48.8679C39.4287 56.8761 26.0636 59.6946 23.4474 55.1633C20.8313 50.6319 29.9547 40.4667 43.8252 32.4586C57.6957 24.4504 71.0608 21.6319 73.6769 26.1633C76.2931 30.6946 67.1697 40.8598 53.2992 48.8679Z" fill="#555555"/>
<path d="M60.1844 54.7795C48.8592 66.1047 36.3484 71.9557 32.2408 67.8481C28.1332 63.7405 33.9842 51.2297 45.3094 39.9045C56.6346 28.5793 69.1454 22.7283 73.253 26.8359C77.3606 30.9435 71.5096 43.4543 60.1844 54.7795Z" fill="white"/>
<path d="M47.6844 43.8942C55.6926 30.0237 67.0202 21.5714 72.9854 25.0154C78.9506 28.4594 77.2944 42.4956 69.2863 56.3661C61.2782 70.2366 49.9506 78.6889 43.9854 75.2449C38.0202 71.8009 39.6763 57.7647 47.6844 43.8942Z" fill="#555555"/>
</svg>
